<svg xmlns="http://www.w3.org/2000/svg" viewBox="0 0 1024 1024" role="img" aria-label="Munkel">
  <rect width="1024" height="1024" rx="228" fill="#2F1B11"/>
  <g transform="translate(512 512) scale(0.72) translate(-512 -512)" fill="#F7E7C2">
    <path d="M448.533,996.04C432.338,993.836 432.417,994.064 416.414,990.986C378.24,983.645 377.49,980.878 372.704,984.75C339.977,1011.224 271.637,1017.174 214.802,964.163C149.117,902.897 143.817,844.887 143.413,842.513C137.89,810.083 147.662,772.283 170.829,746.781C187.643,728.273 193.543,732.408 195.71,720.537C205.892,664.735 252.457,594.323 249.608,583.464C249.327,582.394 202.017,555.352 173.979,512.195C131.699,447.117 149,408.664 140.928,401.036C62.361,326.788 108.804,227.656 159.677,204.944C183.101,194.487 191.036,195.213 205.466,194.106C208.508,193.873 207.416,192.393 215.138,179.281C292.11,48.595 478.419,-19.376 647.498,45.506C762.112,89.488 807.623,175.483 815.959,191.232C818.278,195.615 824.821,194.322 826.504,194.455C919.147,201.791 966.257,325.549 882.887,401.919C880.413,404.185 881.787,409.64 881.686,415.505C879.751,527.663 777.528,580.151 775.892,582.732C774.495,584.937 789.118,617.694 789.516,618.492C819.463,678.511 819.433,678.656 831.361,725.557C832.2,728.858 858.277,740.048 874.716,777.407C914.389,867.568 820.985,970.573 768.334,993.092C700.749,1021.998 659.817,989.045 651.521,983.469C644.091,978.476 584.199,1010.612 448.533,996.04ZM365.506,791.928C352.873,791.506 326.838,791.998 297.588,764.407C265.071,733.735 261.786,683.445 263.759,670.479C265.204,660.988 254.479,684.763 251.424,692.468C231.972,741.531 245.164,749.951 223.265,763.091C136.249,815.302 229.996,939.016 287.465,955.626C338.386,970.344 351.623,933.132 373.502,934.445C388.728,935.359 453.935,964.052 568.47,951.253C645.21,942.678 651.028,925.565 670.148,939.969C689.712,954.706 724.212,980.436 782.901,927.924C804.779,908.349 883.767,814.393 802.782,763.052C777.543,747.051 796.964,735.322 765.974,674.249C765.744,673.795 761.371,665.179 761.706,669.537C769.204,767.138 665.453,842.519 577.152,750.828C546.658,719.162 548.488,711.888 523.881,675.246C521.859,672.235 516.353,662.366 514.314,657.581C512.696,653.786 511.914,654.491 511.751,654.749C509.302,658.621 482.953,713.193 453.89,744.86C412.274,790.207 384.05,790.305 365.506,791.928ZM743.963,669.54C744.209,663.179 745.467,630.73 728.526,591.482C727.929,590.099 725.615,591.107 725.384,591.208C706.598,599.396 682.376,606.34 682.21,613.489C681.472,645.298 698.522,659.001 701.028,661.897C705.655,667.244 698.635,668.06 694.537,666.397C649.089,647.957 653.873,607.391 643.615,574.462C629.021,527.612 583.746,514.272 597.422,524.582C615.524,538.229 620.295,570.372 610.429,571.01C600.806,571.632 592.465,554.866 591.076,552.775C574.075,527.167 549.368,527.779 546.648,528.857C538.62,532.037 542.732,535.261 549.362,540.667C561.253,550.362 578.552,583.754 571.313,590.29C562.696,598.069 551.895,576.393 543.24,570.915C536.072,566.379 534.286,564.367 532.978,568.646C523.273,600.393 534.811,626.728 538.991,636.284C542.837,645.075 564.812,683.104 576.072,699.808C635.734,788.313 692.4,759.785 714.482,738.482C741.394,712.521 743.387,674.579 743.963,669.54ZM518.484,403.956C514.398,404.032 500.284,403.002 486.466,407.398C480.221,409.385 476.694,411.976 475.928,412.899C461.436,430.357 535.369,437.766 549.423,420.436C551.19,418.258 556.066,407.608 518.484,403.956ZM176.449,269.914C196.181,274.131 194.929,282.005 198.559,281.714C199.356,281.65 209.899,239.534 208.582,238.381C206.621,236.665 160.757,236.89 146.502,284.501C146.21,285.477 141.015,302.828 145.037,297.161C146.987,294.415 150.944,269.802 176.449,269.914ZM514.622,508.141C511.596,507.582 511.61,507.739 508.682,508.911C504.337,510.65 507.869,511.971 511.326,517.617C514.22,522.344 514.022,516.681 517.695,512.654C521.318,508.682 515.218,508.372 514.622,508.141ZM848.541,269.903C874.803,269.832 877.997,295.529 879.857,297.202C883.038,300.061 878.848,286.38 878.572,285.478C862.826,234.06 814.934,236.416 815.483,239.5C815.961,242.188 824.392,276.386 825.182,279.59C827.074,287.265 830.055,272.622 848.541,269.903ZM281.064,659.499C283.104,752.91 364.072,791.978 424.362,730.365C451.553,702.579 456.64,686.908 480.018,648.198C503.503,609.31 494.235,563.804 489.657,565.941C471.756,574.296 465.574,596.994 454.443,590.585C445.03,585.165 464.23,550.94 474.597,541.613C477.193,539.277 488.284,533.078 479.312,528.949C473.909,526.463 449.075,530.175 434.849,551.734C434.044,552.954 423.003,573.909 413.449,570.642C404.693,567.649 411.598,533.942 430.093,523.006C437.758,518.474 409.877,521.599 389.736,555.634C368.062,592.26 383.482,639.788 336.329,664.154C324.473,670.28 320.368,665.692 323.898,661.836C324.754,660.901 342.968,646.653 343.012,615.508C343.024,607.508 332.784,604.274 299.597,591.243C297.003,590.224 295.096,591.035 286.243,623.426C281.774,639.775 281.169,656.586 281.064,659.499ZM581.009,430.573C581.572,437.6 583.805,451.239 570.381,460.32C556.058,470.008 554.869,452.073 546.456,454.311C530.885,458.453 525.165,484.86 545.425,494.67C546.516,495.198 546.71,493.454 560.438,496.722C570.048,499.01 568.631,486.437 591.486,487.685C614.561,488.945 634.565,507.548 637.423,506.3C652.789,499.589 651.402,471.392 670.618,478.179C680.118,481.534 688.544,500.352 658.686,526.72C655.49,529.543 656.812,530.246 659.021,533.802C679.158,566.209 674.266,582.403 680.716,578.892C690.818,573.393 765.594,545.108 802.012,500.101C866.062,420.946 818.163,358.934 808.324,330.563C799.265,304.442 789.902,245.562 776.156,216.666C735.118,130.396 640.626,81.488 558.539,71.222C388.381,49.94 267.918,147.395 239.376,240.456C232.811,261.86 223.808,317.765 209.14,348.339C195.21,377.374 172.112,423.522 213.069,486.778C222.953,502.043 239.935,526.806 311.744,564.006C317.64,567.06 346.161,579.66 346.512,579.647C347.961,579.597 353.284,551.968 366.661,532.611C370.998,526.335 364.657,527.358 355.907,516.175C334.335,488.605 352.672,469.541 367.285,479.786C370.165,481.804 383.661,511.09 390.301,506.211C439.593,469.988 457.865,497.763 461.487,497.379C469.549,496.523 469.282,495.296 477.472,495.092C487.544,494.841 502.169,470.979 483.41,456.621C471.762,447.707 471.489,465.761 460.446,462.701C431.719,454.743 430.448,384.741 523.462,389.972C539.638,390.882 553.471,396.766 561.282,401.839C578.564,413.062 579.981,426.256 581.009,430.573ZM648.536,142.926C656.684,142.915 683.783,139.983 710.093,160.99C734.968,180.85 728.039,201.859 711.727,192.118C668.459,166.281 651.021,173.495 630.279,183.002C607.356,193.508 598.132,170.008 606.937,159.85C619.497,145.358 642.593,143.869 648.536,142.926ZM362.522,142.917C365.033,142.915 386.257,140.541 408.379,151.728C432.512,163.931 420.248,196.309 392.733,182.046C352.526,161.202 321.884,189.731 309.6,193.812C285.402,201.85 301.067,148.123 362.522,142.917ZM664.511,204.921C684.989,205.218 707.739,207.183 735.841,228.039C748.379,237.345 767.981,257.521 776.071,285.632C802.822,378.584 715.716,444.946 645.437,422.863C637.811,420.467 656.471,437.443 659.084,443.673C665.149,458.133 643.558,446.029 629.527,432.473C590.881,395.134 583.041,376.659 574.727,359.395C549.27,306.537 575.05,210.095 664.511,204.921ZM722.064,320.466C721.361,325.465 720.153,347.147 701.162,366.16C677.554,389.795 639.688,388.267 617.713,371.116C617.448,370.909 600.405,357.741 613.56,370.446C663.215,418.401 742.788,384.357 738.818,313.475C737.05,281.903 706.61,234.723 647.591,243.772C645.43,244.103 645.138,246.256 647.394,245.898C685.005,239.928 723.251,268.991 722.214,316.492C722.185,317.817 722.092,319.141 722.064,320.466ZM675.504,271.118C654.356,272.876 655.165,295.969 665.675,302.235C691.075,317.376 704.81,273.556 675.504,271.118ZM353.516,204.933C356.171,204.997 358.829,204.847 361.485,204.911C406.79,206 455.086,241.901 459.676,311.492C464.131,379.035 383.002,448.602 369.453,450.073C353.218,451.836 387.172,421.041 380.513,422.743C374.609,424.253 338.857,433.392 304.606,416.306C205.556,366.895 233.199,212.553 353.516,204.933ZM384.503,271.066C363.206,272.972 364.824,295.632 374.741,302.141C397.383,317.001 417.083,275.79 384.503,271.066ZM286.059,320.509C286.785,329.985 286.418,349.835 307.74,372.269C324.988,390.417 371.319,409.174 413.057,369.148C423.424,359.207 406.703,371.672 406.228,372.026C366.947,401.31 298.073,375.997 302.978,306.547C305.887,265.353 349.066,237.914 377.523,246.119C385.399,248.389 377.511,243.921 377.34,243.861C360.31,237.921 288.369,245.935 286.059,320.509Z"/>
  </g>
</svg>
